<svg xmlns="http://www.w3.org/2000/svg" width="512" height="512" viewBox="0 0 512 512">
<g>
<path d="M 98.00,392.50 L 68.51,363.00 L 79.75,351.76 L 90.99,340.52 L 101.49,350.99 L 112.00,361.46 L 112.00,236.73 L 112.00,112.00 L 128.00,112.00 L 144.00,112.00 L 144.00,236.73 L 144.00,361.46 L 154.51,350.99 L 165.01,340.52 L 176.25,351.76 L 187.49,363.00 L 158.00,392.50 L 155.97,394.53 L 152.07,398.43 L 150.14,400.34 L 146.51,403.95 L 144.74,405.72 L 141.46,408.96 L 139.87,410.53 L 137.02,413.33 L 135.66,414.67 L 133.34,416.94 L 132.25,418.01 L 130.53,419.67 L 129.75,420.42 L 128.70,421.40 L 128.49,421.60 L 128.21,421.85 L 128.00,422.00 L 127.98,422.00 L 127.79,421.85 L 127.68,421.75 L 127.30,421.40 L 126.87,421.00 L 125.47,419.67 L 124.69,418.92 L 122.66,416.94 L 121.57,415.88 L 118.98,413.33 L 117.62,412.00 L 114.54,408.96 L 112.96,407.39 L 109.49,403.95 L 107.71,402.19 L 103.93,398.43 L 102.01,396.51 M 208.00,368.00 L 208.00,352.00 L 248.00,352.00 L 288.00,352.00 L 288.00,368.00 L 288.00,384.00 L 248.00,384.00 L 208.00,384.00 L 208.00,368.00 M 208.00,288.00 L 208.00,272.00 L 272.00,272.00 L 336.00,272.00 L 336.00,288.00 L 336.00,304.00 L 272.00,304.00 L 208.00,304.00 L 208.00,288.00 M 208.00,208.00 L 208.00,192.00 L 296.00,192.00 L 384.00,192.00 L 384.00,208.00 L 384.00,224.00 L 296.00,224.00 L 208.00,224.00 L 208.00,208.00 M 208.00,128.00 L 208.00,112.00 L 320.00,112.00 L 432.00,112.00 L 432.00,128.00 L 432.00,144.00 L 320.00,144.00 L 208.00,144.00 L 208.00,128.00 Z" fill="rgba(0,0,0,1)"/>
</g>
</svg>